<svg width="160" height="160" viewBox="0 0 160 160" fill="none" xmlns="http://www.w3.org/2000/svg">
<path d="M88 120H104V136H88V120ZM120 120H136V136H120V120ZM88 88H104V104H88V88ZM104 104H120V120H104V104ZM120 88H136V104H120V88ZM24 40C24 35.7565 25.6857 31.6869 28.6863 28.6863C31.6869 25.6857 35.7565 24 40 24H56C60.2435 24 64.3131 25.6857 67.3137 28.6863C70.3143 31.6869 72 35.7565 72 40V56C72 60.2435 70.3143 64.3131 67.3137 67.3137C64.3131 70.3143 60.2435 72 56 72H40C35.7565 72 31.6869 70.3143 28.6863 67.3137C25.6857 64.3131 24 60.2435 24 56V40ZM40 32C37.8783 32 35.8434 32.8429 34.3431 34.3431C32.8429 35.8434 32 37.8783 32 40V56C32 58.1217 32.8429 60.1566 34.3431 61.6569C35.8434 63.1571 37.8783 64 40 64H56C58.1217 64 60.1566 63.1571 61.6569 61.6569C63.1571 60.1566 64 58.1217 64 56V40C64 37.8783 63.1571 35.8434 61.6569 34.3431C60.1566 32.8429 58.1217 32 56 32H40ZM40 40H56V56H40V40ZM24 104C24 99.7565 25.6857 95.6869 28.6863 92.6863C31.6869 89.6857 35.7565 88 40 88H56C60.2435 88 64.3131 89.6857 67.3137 92.6863C70.3143 95.6869 72 99.7565 72 104V120C72 124.243 70.3143 128.313 67.3137 131.314C64.3131 134.314 60.2435 136 56 136H40C35.7565 136 31.6869 134.314 28.6863 131.314C25.6857 128.313 24 124.243 24 120V104ZM40 96C37.8783 96 35.8434 96.8429 34.3431 98.3431C32.8429 99.8434 32 101.878 32 104V120C32 122.122 32.8429 124.157 34.3431 125.657C35.8434 127.157 37.8783 128 40 128H56C58.1217 128 60.1566 127.157 61.6569 125.657C63.1571 124.157 64 122.122 64 120V104C64 101.878 63.1571 99.8434 61.6569 98.3431C60.1566 96.8429 58.1217 96 56 96H40ZM40 104H56V120H40V104ZM88 40C88 35.7565 89.6857 31.6869 92.6863 28.6863C95.6869 25.6857 99.7565 24 104 24H120C124.243 24 128.313 25.6857 131.314 28.6863C134.314 31.6869 136 35.7565 136 40V56C136 60.2435 134.314 64.3131 131.314 67.3137C128.313 70.3143 124.243 72 120 72H104C99.7565 72 95.6869 70.3143 92.6863 67.3137C89.6857 64.3131 88 60.2435 88 56V40ZM104 32C101.878 32 99.8434 32.8429 98.3431 34.3431C96.8429 35.8434 96 37.8783 96 40V56C96 58.1217 96.8429 60.1566 98.3431 61.6569C99.8434 63.1571 101.878 64 104 64H120C122.122 64 124.157 63.1571 125.657 61.6569C127.157 60.1566 128 58.1217 128 56V40C128 37.8783 127.157 35.8434 125.657 34.3431C124.157 32.8429 122.122 32 120 32H104ZM104 40H120V56H104V40Z" fill="#0EB378"/>
</svg>
